# AST/ASF file generated using VICON BodyLanguage
# -----------------------------------------------
:version 1.10
:name VICON
:units
  mass 1.0
  length 0.45
  angle deg
:documentation
   .ast/.asf automatically generated from VICON data using
   VICON BodyBuilder and BodyLanguage model FoxedUp or BRILLIANT.MOD
:root
   order TX TY TZ RX RY RZ
   axis XYZ
   position 0 0 0  
   orientation 0 0 0 
:bonedata
  begin
     id 1 
     name lhipjoint
     direction 0.577973 -0.728611 0.367523 
     length 2.48544 
     axis 0 0 0  XYZ
  end
  begin
     id 2 
     name lfemur
     direction 0.34202 -0.939693 0  
     length 7.1921  
     axis 0 0 20  XYZ
    dof rx ry rz
    limits (-160.0 20.0)
           (-70.0 70.0)
           (-60.0 70.0)
  end
  begin
     id 3 
     name ltibia
     direction 0.34202 -0.939693 0   
     length 7.71059   
     axis 0 0 20   XYZ
    dof rx
    limits (-10.0 170.0)
  end
  begin
     id 4 
     name lfoot
     direction 0.089538 -0.246004 0.965124   
     length 2.19909   
     axis -90 7.62852e-016 20   XYZ
    dof rx rz
    limits (-45.0 90.0)
           (-70.0 20.0)
  end
  begin
     id 5 
     name ltoes
     direction 1.53544e-011 -4.21829e-011 1   
     length 1.10116   
     axis -90 7.62852e-016 20   XYZ
    dof rx
    limits (-90.0 20.0)
  end
  begin
     id 6 
     name rhipjoint
     direction -0.554414 -0.743062 0.374812   
     length 2.4371  
     axis 0 0 0  XYZ 
  end
  begin
     id 7 
     name rfemur
     direction -0.34202 -0.939693 0   
     length 7.47254   
     axis 0 0 -20   XYZ
    dof rx ry rz
    limits (-160.0 20.0)
           (-70.0 70.0)
           (-70.0 60.0)
  end
  begin
     id 8 
     name rtibia
     direction -0.34202 -0.939693 0   
     length 7.65855   
     axis 0 0 -20   XYZ
    dof rx
    limits (-10.0 170.0)
 end
 begin
     id 9 
     name rfoot
     direction -0.133779 -0.367555 0.92033   
     length 2.43006  
     axis -90 -7.62852e-016 -20   XYZ
    dof rx rz
    limits (-45.0 90.0)
           (-20.0 70.0)
  end
  begin
     id 10 
     name rtoes
     direction -1.53563e-011 -4.21889e-011 1   
     length 1.19625   
     axis -90 -7.62852e-016 -20   XYZ
    dof rx
    limits (-90.0 20.0)
  end
  begin
     id 11 
     name lowerback
     direction 0.0249066 0.998043 -0.0573585   
     length 2.08485   
     axis 0 0 0   XYZ
    dof rx ry rz
    limits (-20.0 45.0)
           (-30.0 30.0)
           (-30.0 30.0)
  end
  begin
     id 12 
     name upperback
     direction 0.0237884 0.999673 0.00943178   
     length 2.08515   
     axis 0 0 0   XYZ
    dof rx ry rz
    limits (-20.0 45.0)
           (-30.0 30.0)
           (-30.0 30.0)
  end
  begin
     id 13 
     name thorax
     direction 0.0106671 0.999301 0.0358174   
     length 2.09037   
     axis 0 0 0   XYZ
    dof rx ry rz
    limits (-20.0 45.0)
           (-30.0 30.0)
           (-30.0 30.0)
  end
  begin
     id 14 
     name lowerneck
     direction -0.0580016 0.987052 0.149546   
     length 1.84454   
     axis 0 0 0   XYZ
    dof rx ry rz
    limits (-20.0 45.0)
           (-30.0 30.0)
           (-30.0 30.0)
  end
  begin
     id 15 
     name upperneck
     direction 0.079456 0.981963 -0.171567   
     length 1.88141   
     axis 0 0 0   XYZ
    dof rx ry rz
    limits (-20.0 45.0)
           (-30.0 30.0)
           (-30.0 30.0)
  end
  begin
     id 16
     name head
     direction 0.0262167 0.9967 -0.0768276  
     length 1.89541  
     axis 0 0 0   XYZ
    dof rx ry rz
    limits (-20.0 45.0)
           (-30.0 30.0)
           (-30.0 30.0)
  end
  begin
     id 17 
     name lclavicle
     direction 0.946135 0.322134 -0.0325326  
     length 3.949  
     axis 0 0 0   XYZ
    dof ry rz
    limits (-20.0 10.0)
           (0.0 20.0)
  end
  begin
     id 18 
     name lhumerus
     direction 1 -4.48964e-011 1.94005e-028   
     length 5.10995   
     axis 180 -30 -90   XYZ
    dof rx ry rz
    limits (-60.0 90.0)
           (-90.0 90.0)
           (-90.0 90.0)
  end
  begin
     id 19
     name lradius
     direction 1 -4.48976e-011 2.87852e-027   
     length 3.21207   
     axis 180 -30 -90   XYZ
    dof rx
    limits (-10.0 170.0)
  end
  begin
     id 20
     name lwrist
     direction 1 -4.48963e-011 1.9975e-027   
     length 1.60604   
     axis 2.96054e-016 90 90   XYZ
    dof ry
    limits (-180.0 0.0)
 end
  begin
     id 21 
     name lhand
     direction 1 -4.48919e-011 4.00227e-027   
     length 0.63349   
     axis -2.5488e-015 90 90   XYZ
    dof rx rz
    limits (-90.0 90.0)
           (-45.0 45.0)
  end
  begin
     id 22 
     name lfingers
     direction 1 -4.49037e-011 7.9652e-027   
     length 0.510736   
     axis -5.0975e-015 90 90   XYZ
    dof rx
    limits (0.0 90.0)
  end
  begin
     id 23
     name lthumb
     direction 0.707107 -6.34922e-011 0.707107   
     length 0.733318   
     axis -90 45 -4.48553e-014   XYZ
    dof rx rz
    limits (-45.0 45.0)
           (-45.0 45.0)
  end
  begin
     id 24 
     name rclavicle
     direction -0.940085 0.328911 -0.0897654   
     length 3.93848  
     axis 0 0 0   XYZ 
    dof ry rz
    limits (-10.0 20.0)
           (-20.0 0.0)
  end
  begin
     id 25 
     name rhumerus
     direction -1 -4.48958e-011 3.02044e-027  
     length 5.25109   
     axis 180 30 90   XYZ
    dof rx ry rz
    limits (-90.0 60.0)
           (-90.0 90.0)
           (-90.0 90.0)
  end
  begin
     id 26 
     name rradius
     direction -1 -4.4897e-011 9.78352e-028   
     length 3.28364   
     axis 180 30 90   XYZ
    dof rx
    limits (-10.0 170.0)
  end
  begin
     id 27 
     name rwrist
     direction -1 -4.48943e-011 1.99918e-027   
     length 1.64182   
     axis 2.96054e-016 -90 -90   XYZ
    dof ry
    limits (-180.0 0.0)
  end
  begin
     id 28
     name rhand
     direction -1 -4.49024e-011 3.98478e-027   
     length 0.599745   
     axis -2.5488e-015 -90 -90   XYZ
    dof rx rz
    limits (-90.0 90.0)
           (-45.0 45.0)
  end
  begin
     id 29
     name rfingers
     direction -1 -4.48914e-011 8.00621e-027   
     length 0.48353   
     axis -5.0975e-015 -90 -90   XYZ
    dof rx
    limits (0.0 90.0)
  end
  begin
     id 30
     name rthumb
     direction -0.707107 -6.34992e-011 0.707107   
     length 0.694255   
     axis -90 -45 4.48553e-014   XYZ
    dof rx rz
    limits (-45.0 45.0)
           (-45.0 45.0)
  end
:hierarchy
  begin
    root lhipjoint rhipjoint lowerback
    lhipjoint lfemur
    lfemur ltibia
    ltibia lfoot
    lfoot ltoes
    rhipjoint rfemur
    rfemur rtibia
    rtibia rfoot
    rfoot rtoes
    lowerback upperback
    upperback thorax
    thorax lowerneck lclavicle rclavicle
    lowerneck upperneck
    upperneck head
    lclavicle lhumerus
    lhumerus lradius
    lradius lwrist
    lwrist lhand lthumb
    lhand lfingers
    rclavicle rhumerus
    rhumerus rradius
    rradius rwrist
    rwrist rhand rthumb
    rhand rfingers
  end

#!OML:ASF E:\CV Data\Top Level 1\Subject 1\Session 1\player.ASF
:FULLY-SPECIFIED
:DEGREES
454
root 2.14061 17.0372 5.85561 22.1577 40.0053 -8.84403
lowerback 18.5982 9.5254 7.74411
upperback 2.56357 14.431 4.4148
thorax -6.6995 6.83675 -2.82299
lowerneck 5.84374 -19.5622 -16.3155
upperneck -25.9428 -23.3591 32.8156
head -1.96094 -13.2803 12.7253
rclavicle 1.59028e-015 9.54166e-015
rhumerus 151.247 97.7196 54.8434
rradius 75.4873
rwrist -12.147
rhand -25.0283 26.0028
rfingers 7.12502
rthumb 1.48421 -3.97181
lclavicle 1.59028e-015 9.54166e-015
lhumerus -47.6338 7.03175 81.9723
lradius 88.766
lwrist 6.52613
lhand -23.6296 15.5015
lfingers 7.12502
lthumb 2.83511 45.4624
rfemur -2.32744 -8.73522 26.2572
rtibia 32.0108
rfoot 9.02526 -11.2703
rtoes 7.31076
lfemur -58.0287 -6.10023 -21.9823
ltibia 31.9505
lfoot 3.84809 -29.1939
ltoes 16.58
455
root 2.12454 17.0568 5.88339 21.7921 40.3184 -9.24621
lowerback 18.581 9.34976 7.53005
upperback 2.57334 14.1539 4.35382
thorax -6.73629 6.70755 -2.72361
lowerneck 5.83924 -19.491 -16.436
upperneck -25.7054 -23.2926 33.0642
head -1.84396 -13.2539 12.8025
rclavicle -5.725e-014 -7.95139e-014
rhumerus 153.396 99.77 59.0424
rradius 75.286
rwrist -11.5071
rhand -25.7527 26.2639
rfingers 7.12502
rthumb 0.784637 -3.71441
lclavicle -5.725e-014 -7.95139e-014
lhumerus -47.1129 6.39201 82.4426
lradius 87.6958
lwrist 8.05177
lhand -23.4943 16.1078
lfingers 7.12502
lthumb 2.96576 46.0669
rfemur -2.70799 -8.93699 25.8179
rtibia 32.5315
rfoot 8.7499 -10.3681
rtoes 6.46534
lfemur -57.8044 -6.0147 -21.5946
ltibia 31.824
lfoot 3.91329 -29.3229
ltoes 16.6626
456
root 2.10988 17.0751 5.90861 21.396 40.6146 -9.66916
lowerback 18.5612 9.1707 7.32514
upperback 2.58666 13.8758 4.31522
thorax -6.77024 6.57835 -2.60384
lowerneck 5.8303 -19.4099 -16.5736
upperneck -25.4876 -23.2106 33.323
head -1.73136 -13.2192 12.8904
rclavicle -8.26944e-014 3.81667e-014
rhumerus 155.212 102.059 62.8952
rradius 74.606
rwrist -10.4441
rhand -26.5692 26.2446
rfingers 7.12502
rthumb -0.00401785 -3.7351
lclavicle -8.26944e-014 3.81667e-014
lhumerus -46.5136 5.65832 82.9432
lradius 86.5314
lwrist 9.80476
lhand -23.1346 16.595
lfingers 7.12502
lthumb 3.31307 46.549
rfemur -3.08082 -9.11179 25.3793
rtibia 33.0591
rfoot 8.43401 -9.36136
rtoes 5.43275
lfemur -57.5723 -5.96091 -21.1669
ltibia 31.6996
lfoot 3.98672 -29.3987
ltoes 16.7051
457
root 2.09595 17.0924 5.93045 20.9718 40.9059 -10.1023
lowerback 18.5545 8.97716 7.13189
upperback 2.60439 13.5845 4.29978
thorax -6.80912 6.44253 -2.46431
lowerneck 5.80648 -19.3138 -16.7317
upperneck -25.2783 -23.1084 33.5796
head -1.62121 -13.1714 12.9847
rclavicle -4.45278e-014 -1.11319e-014
rhumerus 156.814 104.555 66.4878
rradius 73.4368
rwrist -9.33507
rhand -27.3641 25.975
rfingers 7.12502
rthumb -0.771771 -4.00338
lclavicle -4.45278e-014 -1.11319e-014
lhumerus -45.8398 4.84826 83.4615
lradius 85.2621
lwrist 11.6821
lhand -22.5922 17.0121
lfingers 7.12502
lthumb 3.83687 46.9573
rfemur -3.44894 -9.25929 24.9408
rtibia 33.6076
rfoot 8.10666 -8.41021
rtoes 4.50189
lfemur -57.3292 -5.9222 -20.7316
ltibia 31.5738
lfoot 4.09529 -29.4631
ltoes 16.7966
458
root 2.08273 17.1089 5.94898 20.5244 41.1808 -10.5418
lowerback 18.5552 8.7736 6.94449
upperback 2.62758 13.2833 4.30221
thorax -6.84816 6.30218 -2.30687
lowerneck 5.7705 -19.2028 -16.8979
upperneck -25.0753 -22.9857 33.8259
head -1.51684 -13.1108 13.0817
rclavicle -8.26944e-014 -3.49861e-014
rhumerus 158.305 107.241 69.8871
rradius 71.7889
rwrist -8.54057
rhand -27.9299 25.3971
rfingers 7.12502
rthumb -1.31819 -4.57854
lclavicle -8.26944e-014 -3.49861e-014
lhumerus -45.1017 3.96169 83.9849
lradius 83.8926
lwrist 13.5923
lhand -21.8558 17.3572
lfingers 7.12502
lthumb 4.54801 47.2884
rfemur -3.81891 -9.36775 24.499
rtibia 34.1873
rfoot 7.78343 -7.67227
rtoes 3.89041
lfemur -57.0737 -5.86056 -20.3196
ltibia 31.4441
lfoot 4.23424 -29.5494
ltoes 16.9448
459
root 2.07012 17.1251 5.96453 20.0575 41.4261 -10.9793
lowerback 18.5782 8.56562 6.76015
upperback 2.64524 12.9797 4.30896
thorax -6.90378 6.15955 -2.14891
lowerneck 5.73297 -19.0767 -17.0547
upperneck -24.8647 -22.8447 34.0478
head -1.42084 -13.0387 13.1752
rclavicle 1.01778e-013 -3.65764e-014
rhumerus 159.69 110.145 73.041
rradius 69.6816
rwrist -8.30886
rhand -28.1751 24.4536
rfingers 7.12502
rthumb -1.55502 -5.52048
lclavicle 1.01778e-013 -3.65764e-014
lhumerus -44.3255 2.98878 84.503
lradius 82.4351
lwrist 15.469
lhand -20.9781 17.6478
lfingers 7.12502
lthumb 5.39548 47.5592
rfemur -4.1906 -9.43596 24.0453
rtibia 34.8039
rfoot 7.47727 -7.26507
rtoes 3.62507
lfemur -56.799 -5.75197 -19.9532
ltibia 31.3083
lfoot 4.40016 -29.668
ltoes 17.1595
